PathFileType        4      (X/Y/Z)      C:\Users\pc\Desktop\IMUTRC\Sujet_05\Sujet_05_velo_100.trc         
DataRate	CameraRate	NumFrames	NumMarkers	Units	OrigDataRate	OrigDataStartFrame	OrigNumFrames
60.0	60.0	4	64	mm	60.0	362	963
Frame#	Time	pHipOrigin			pRightASI			pLeftASI			pRightCSI			pLeftCSI			pRightIschialTub			pLeftIschialTub			pSacrum			pL5SpinalProcess			pL3SpinalProcess			pT12SpinalProcess			pIJ			pT4SpinalProcess			pT8SpinalProcess			pPX			pC7SpinalProcess			pTopOfHead			pRightAuricularis			pLeftAuricularis			pBackOfHead			pRightAcromion			pLeftAcromion			pRightArmLatEpicondyle			pRightArmMedEpicondyle			pLeftArmLatEpicondyle			pLeftArmMedEpicondyle			pRightUlnarStyloid			pRightRadialStyloid			pRightOlecranon			pLeftUlnarStyloid			pLeftRadialStyloid			pLeftOlecranon			pRightTopOfHand			pRightPinky			pRightBallHand			pLeftTopOfHand			pLeftPinky			pLeftBallHand			pRightGreaterTrochanter			pRightKneeLatEpicondyle			pRightKneeMedEpicondyle			pRightPatella			pLeftGreaterTrochanter			pLeftKneeLatEpicondyle			pLeftKneeMedEpicondyle			pLeftPatella			pRightTibialTub			pRightLatMalleolus			pRightMedMalleolus			pLeftTibialTub			pLeftLatMalleolus			pLeftMedMalleolus			pRightHeelFoot			pRightFirstMetatarsal			pRightFifthMetatarsal			pRightPivotFoot			pRightHeelCenter			pRightToe			pLeftHeelFoot			pLeftFirstMetatarsal			pLeftFifthMetatarsal			pLeftPivotFoot			pLeftHeelCenter			pLeftToe			
		X1	Y1	Z1	X2	Y2	Z2	X3	Y3	Z3	X4	Y4	Z4	X5	Y5	Z5	X6	Y6	Z6	X7	Y7	Z7	X8	Y8	Z8	X9	Y9	Z9	X10	Y10	Z10	X11	Y11	Z11	X12	Y12	Z12	X13	Y13	Z13	X14	Y14	Z14	X15	Y15	Z15	X16	Y16	Z16	X17	Y17	Z17	X18	Y18	Z18	X19	Y19	Z19	X20	Y20	Z20	X21	Y21	Z21	X22	Y22	Z22	X23	Y23	Z23	X24	Y24	Z24	X25	Y25	Z25	X26	Y26	Z26	X27	Y27	Z27	X28	Y28	Z28	X29	Y29	Z29	X30	Y30	Z30	X31	Y31	Z31	X32	Y32	Z32	X33	Y33	Z33	X34	Y34	Z34	X35	Y35	Z35	X36	Y36	Z36	X37	Y37	Z37	X38	Y38	Z38	X39	Y39	Z39	X40	Y40	Z40	X41	Y41	Z41	X42	Y42	Z42	X43	Y43	Z43	X44	Y44	Z44	X45	Y45	Z45	X46	Y46	Z46	X47	Y47	Z47	X48	Y48	Z48	X49	Y49	Z49	X50	Y50	Z50	X51	Y51	Z51	X52	Y52	Z52	X53	Y53	Z53	X54	Y54	Z54	X55	Y55	Z55	X56	Y56	Z56	X57	Y57	Z57	X58	Y58	Z58	X59	Y59	Z59	X60	Y60	Z60	X61	Y61	Z61	X62	Y62	Z62	X63	Y63	Z63	X64	Y64	Z64	
362	6.017	0.0	1249.9765	7.653898598672058E-14	72.66252000000001	1339.84262	121.27398000000008	52.40303999999999	1344.8226	-127.78191999999991	29.766730000000006	1402.77153	104.91925000000009	12.959279999999993	1406.84607	-102.25948999999991	-47.81918	1196.10211	54.949620000000074	-56.25121	1198.13938	-48.61144999999993	-62.08005	1269.89645	5.432710000000082	-25.80538	1370.00549	4.0179400000000856	32.82264	1475.03792	-0.4527299999999117	93.94065	1566.60175	-5.885439999999909	354.54105	1588.21942	-26.258109999999924	244.52863	1697.21321	-20.08971999999991	168.30089	1645.94199	-13.015869999999909	253.46997	1513.85918	-16.69426999999992	294.78122	1729.41334	-23.145619999999912	570.03863	1772.59209	-76.68046999999991	489.34022	1733.60106	15.902000000000076	453.971	1745.54171	-125.63146999999991	455.27259	1794.03998	-46.17804999999992	297.27121	1664.67353	176.7329100000001	287.5942	1654.88333	-214.3657599999999	369.19806	1410.58105	169.65907000000007	356.29537	1406.22357	113.91718000000006	387.87301	1422.01239	-214.13939999999994	371.97101	1411.5431	-160.03863999999993	468.23187	1191.46167	149.28640000000004	511.5238	1216.13523	150.64458000000005	338.58246	1401.69631	143.23119000000005	497.65906	1211.15525	-234.22911999999994	535.971	1239.90335	-248.32020999999995	358.04968	1407.92129	-181.20357999999993	551.70323	1126.55208	300.21393	511.5238	1124.74117	223.87301000000002	503.20496	1170.12695	167.90476000000007	621.98894	1172.16422	-376.95099	564.66251	1157.90335	-314.07867	537.7819	1195.47961	-258.16701	11.884060000000009	1213.58865	147.4755000000001	295.57349	989.14973	157.43547000000004	317.47411	1005.10833	92.41270000000004	327.49067	1028.31053	137.11939000000004	-14.543820000000009	1223.32226	-150.0220799999999	253.18702	992.88472	-228.57003999999998	286.63215	1002.16561	-167.22566999999998	289.85783	1029.1028	-210.85713999999996	355.5031	972.62523	135.25189000000003	307.51414	598.78673	133.27122	322.22774	601.95582	75.49206000000002	286.9717	949.47962	-207.06555999999998	16.015179999999994	695.78328	-141.70323999999997	38.821259999999995	692.6142	-86.64043999999996	259.01587	526.1808	95.69496000000001	420.922	492.90544	76.11456	411.41476	490.98135	153.92684	437.89923	487.13318	116.46377	297.49758	520.63491	100.22222000000001	516.33401	469.64664	125.63147	-60.042790000000004	669.24222	-92.69564999999996	54.77985	554.41959	-56.364389999999965	39.78329999999999	541.4603	-132.30917999999997	62.193239999999996	531.38715	-93.37473999999997	-32.143550000000005	641.7957	-93.54450999999996	115.6149	470.55209	-93.54450999999997	
363	6.033	0.0	1249.9765	7.653898598672058E-14	73.56798000000002	1338.76739	121.55693000000008	50.59212999999999	1346.52032	-127.21600999999991	30.21946000000001	1401.63972	106.39061000000008	11.148379999999994	1408.09106	-100.56175999999992	-46.97032	1195.25325	54.836440000000074	-56.53416	1198.47892	-48.61144999999993	-62.13664	1269.5569	6.338160000000082	-26.37129	1369.83571	5.545890000000085	31.63423	1475.1511	0.7922700000000885	92.18633	1567.11107	-5.31952999999991	352.39061	1590.31328	-28.691509999999926	241.6991	1698.62798	-21.95720999999991	165.92408	1646.90403	-13.58177999999991	251.88543	1515.33053	-17.429949999999923	291.66873	1731.16766	-25.80537999999991	565.90751	1776.55344	-82.22635999999991	486.51068	1737.22287	11.261560000000076	449.67011	1748.08829	-130.0455499999999	451.19806	1796.9827	-50.81848999999992	296.47894	1667.61624	174.92201000000009	281.87853	1656.01514	-216.45961999999992	368.00965	1412.78809	168.52726000000007	354.71083	1408.26083	112.89855000000006	384.76051	1423.82329	-214.64871999999994	369.31124	1413.69355	-160.32159999999993	467.66596	1194.06484	149.96549000000005	510.9013	1218.90818	151.43685000000005	337.28087	1403.67698	142.04278000000005	496.92338	1214.15456	-233.60661999999994	535.00896	1243.2422	-247.52793999999994	355.16355	1409.6756	-181.76948999999993	550.28846	1130.40025	301.85506	510.61834	1127.96685	225.28778000000003	502.58246	1172.95649	168.97998000000007	621.81917	1175.44649	-375.81918	564.32297	1161.12903	-313.11662	537.15941	1198.70528	-257.31814	9.450660000000008	1210.8157	146.5700400000001	271.57901	961.36367	152.28571000000002	295.17736	976.75636	87.65907000000004	307.06141	997.97789	132.93167000000003	-13.52519000000001	1225.35953	-150.5313999999999	269.76811	1016.08693	-233.71979999999996	302.47756	1026.44304	-172.14905999999996	303.72256	1054.45546	-215.21462999999997	333.20634	945.17872	130.95100000000002	292.23464	570.49136	128.5176	307.79709	573.94339	71.02139000000001	301.68529	973.13455	-211.08349999999996	25.296069999999993	726.11592	-142.94823999999994	47.819179999999996	723.34298	-87.77224999999996	244.24568	498.39474	88.90407000000002	406.37818	465.40233	70.9648	395.79571	461.89371	148.55072	422.73291	458.78122	111.42719	282.6708	492.67908	93.88406000000002	501.1111	441.01172	121.38716	-50.761900000000004	699.971	-93.60109999999996	63.94754999999999	584.63905	-58.57142999999997	48.55485999999999	572.18908	-134.45961999999997	71.07798	561.83297	-95.75154999999997	-22.97584000000001	672.46789	-94.73291999999995	124.44306	500.82814	-96.54381999999998	
364	6.05	0.0	1249.9765	7.653898598672058E-14	74.24707000000001	1337.69217	121.89648000000008	49.29053999999999	1348.10487	-126.53691999999991	30.615600000000008	1400.56449	107.80538000000008	9.790199999999995	1409.22288	-98.86403999999992	-46.34782	1194.46098	54.61007000000007	-56.76052	1198.81847	-48.72463999999993	-62.13664	1269.27395	7.073840000000081	-26.71083	1369.66594	6.904070000000085	30.84196	1475.26428	2.093860000000088	90.82816	1567.45062	-4.5272599999999095	350.74947	1591.95441	-30.332639999999927	239.49206	1699.75979	-23.032439999999912	164.11318	1647.63971	-13.69495999999991	250.81021	1516.51894	-17.712909999999923	289.29192	1732.46925	-27.55969999999991	562.73843	1779.21321	-86.69702999999991	484.36024	1739.88263	7.6963400000000775	446.27466	1749.84261	-133.32780999999991	448.19875	1799.07656	-54.383709999999915	296.08281	1669.82328	173.79020000000008	277.06832	1656.864	-217.81779999999992	366.76466	1414.20286	168.47067000000007	353.40924	1409.44924	112.89855000000006	381.87439	1425.12488	-214.93166999999994	367.04761	1415.27809	-160.43477999999993	467.26983	1195.81916	150.98412000000005	510.39198	1220.88886	152.62525000000005	336.03588	1404.92198	141.92960000000005	496.24429	1216.41819	-232.53139999999993	534.1601	1245.7322	-246.39612999999994	352.61697	1410.97719	-182.05244999999994	549.60937	1132.94683	303.38302	510.10903	1130.11729	226.70255000000003	502.12973	1174.93717	170.22498000000004	621.6494	1177.71012	-374.17804	563.98342	1163.39266	-311.64526	536.48032	1201.0821	-256.07315	7.073840000000009	1208.72185	145.8909600000001	247.92408	938.67078	147.81504000000004	272.93719	953.15802	83.52795000000005	286.3492	972.56864	129.14009000000001	-12.167010000000008	1227.62316	-151.0407099999999	284.76466	1039.62868	-237.34160999999997	316.45548	1050.72047	-175.37473999999997	316.05934	1079.75153	-217.76120999999998	311.53208	921.35401	127.72532000000004	273.33333	546.44029	124.95238000000002	289.85783	549.89233	67.68254000000002	315.94616	996.84608	-213.68667999999997	38.25534999999999	751.41199	-145.15527999999995	60.438919999999996	749.03518	-89.80951999999996	224.83505	475.64526	82.62250000000002	386.74119	440.38922	66.60731	374.74395	435.18287	143.91028	402.30365	432.5797	107.18288	263.0904	469.19391	88.11180000000002	480.00275	413.39543	117.93512	-37.18012000000001	724.07866	-95.18563999999996	79.79296	610.44443	-62.02345999999997	63.94754999999999	598.33401	-137.85506999999998	87.03657	588.09108	-99.42994999999996	-8.884750000000006	697.02828	-96.77017999999995	141.25051	528.27466	-101.18425999999998	
365	6.067	0.0	1249.9765	7.653898598672058E-14	74.75638000000001	1336.50376	122.46238000000008	48.49826999999999	1349.46304	-125.74464999999991	30.955140000000007	1399.48927	109.22015000000009	9.111109999999995	1410.2981	-97.22290999999991	-46.00828	1193.83848	54.27053000000007	-56.9303	1199.27119	-48.95099999999993	-62.08005	1269.10418	7.583160000000081	-26.82402	1369.49617	8.205660000000085	30.33264	1475.32087	3.5652200000000884	90.03588	1567.67698	-3.2822599999999094	349.67425	1593.19941	-30.898549999999926	238.0207	1700.55206	-22.975839999999913	162.92477	1648.14903	-12.959279999999909	250.13112	1517.3678	-17.316769999999924	287.70738	1733.54447	-27.95582999999991	560.75775	1780.06207	-89.41338999999992	483.05865	1741.35399	5.772260000000077	443.89785	1750.4651	-134.96893999999992	446.44443	1800.20837	-56.364389999999915	295.91304	1671.01169	173.79020000000008	273.33333	1657.54309	-218.10074999999992	365.18011	1414.54241	170.50793000000004	352.22083	1409.73219	114.82263000000006	379.10144	1425.74738	-215.10143999999994	365.12352	1416.29672	-160.26500999999993	466.87369	1196.61143	152.51207000000005	509.82607	1221.90749	154.37957000000006	334.6777	1405.14834	143.74051000000006	495.33884	1217.71978	-230.77707999999996	533.02828	1247.20356	-244.81158999999994	350.29675	1411.65628	-181.93925999999993	549.94892	1133.56933	304.57142	510.22221	1130.85297	228.00414000000004	501.84678	1175.84262	171.69634000000005	621.19667	1178.44579	-371.85782	563.36092	1164.41129	-309.32504	535.63146	1202.38368	-254.09246999999993	4.979990000000009	1207.36367	145.4382300000001	226.24982	921.01447	144.47619000000006	252.16839	934.3133	80.30228000000004	266.93857	952.25256	126.08419000000005	-10.186340000000008	1230.16974	-151.6632099999999	298.96894	1063.50998	-238.69978999999998	329.1884	1074.88472	-176.11041999999998	327.43408	1104.93441	-217.70461999999998	290.48032	902.56588	125.97101000000005	250.75362	527.76534	123.65079000000001	268.69288	530.93442	66.77709000000002	329.7543	1021.23669	-214.25257999999997	55.62870999999999	771.16216	-148.26776999999996	77.35956	769.0683	-92.75223999999996	200.50103	459.40372	77.47274000000002	361.27535	418.31883	64.28709	347.07107	411.01862	141.08074	375.47963	408.52863	104.91925	238.30365	451.25465	83.69772000000002	451.87715	386.11869	116.63354	-18.561770000000006	739.86748	-97.33608999999996	103.73085	631.10005	-66.94685999999996	87.37611999999999	619.10281	-142.72186999999997	111.3706	609.48239	-104.63629999999996	10.865419999999995	714.11868	-99.59971999999996	168.07453	552.32573	-107.86196999999999	
